<?xml version="1.0" ?><svg height="32" id="icon" viewBox="0 0 32 32" width="32" xmlns="http://www.w3.org/2000/svg"><defs><style>.cls-1{fill:none;}</style></defs><title/><rect height="2" width="6" x="19" y="17"/><rect height="2" width="6" x="11" y="17"/><rect height="2" width="3" x="6" y="17"/><rect height="2" width="4" x="22" y="13"/><rect height="2" width="7" x="13" y="13"/><rect height="2" width="5" x="6" y="13"/><path d="M17.7358,30,16,29l4-7h6a1.9966,1.9966,0,0,0,2-2V8a1.9966,1.9966,0,0,0-2-2H6A1.9966,1.9966,0,0,0,4,8V20a1.9966,1.9966,0,0,0,2,2h9v2H6a3.9993,3.9993,0,0,1-4-4V8A3.9988,3.9988,0,0,1,6,4H26a3.9988,3.9988,0,0,1,4,4V20a3.9993,3.9993,0,0,1-4,4H21.1646Z"/><rect class="cls-1" data-name="&lt;Transparent Rectangle&gt;" height="32" id="_Transparent_Rectangle_" width="32"/></svg>